<?xml version="1.0" standalone="no"?>
<!DOCTYPE svg PUBLIC "-//W3C//DTD SVG 1.1//EN" "http://www.w3.org/Graphics/SVG/1.1/DTD/svg11.dtd" >
<svg xmlns="http://www.w3.org/2000/svg">
<metadata>Generated by IcoMoon</metadata>
<defs>
<font id="icomoon" horiz-adv-x="1024">
<font-face units-per-em="1024" ascent="960" descent="-64" />
<missing-glyph horiz-adv-x="1024" />
<glyph unicode="&#x20;" horiz-adv-x="512" d="" />
<glyph unicode="&#xe900;" glyph-name="zhihu" d="M351.791 397.531h192.945c0 45.367-21.387 71.939-21.387 71.939h-167.452c3.978 82.183 7.542 187.659 8.817 226.835h159.283c0 0-0.864 67.402-18.578 67.402s-279.98 0-279.98 0 16.851 88.141 39.318 127.054c0 0-83.605 4.511-112.122-106.962s-71.292-178.876-75.828-191.189c-4.536-12.313 24.628-5.833 36.941 0s68.051 25.924 84.253 103.696h86.571c1.166-49.287 4.597-200.336 3.515-226.835h-178.227c-25.276-18.147-33.702-71.939-33.702-71.939h203.709c-8.498-56.255-23.417-128.764-44.275-167.21-33.053-60.922-50.552-116.658-169.802-212.577 0 0-19.443-14.258 40.83-9.074s117.306 20.739 156.84 99.807c20.553 41.107 41.805 93.251 58.387 146.138l-0.055-0.185 167.856-193.264c0 0 22.036 51.848 5.833 108.881l-124.435 139.342-42.124-31.158-0.045-0.151c11.699 41.020 20.112 81.575 22.727 116.858 0.062 0.849 0.126 1.716 0.188 2.592zM584.919 777.966v-668.84h70.319l28.807-80.513 121.876 80.513h153.6v668.84h-374.602zM887.15 181.065h-79.837l-99.579-65.782-23.537 65.782h-24.855v522.261h227.807v-522.261z" />
<glyph unicode="&#xe901;" glyph-name="tianmao" d="M170.177 649.842c-13.046 9.010-29.214 13.478-45.060 11.529-18.003-2.214-34.898-12.512-44.956-27.642-3.258-4.902-5.821-10.599-7.695-16.169-8.556-25.081-8.142-67.019-8.142-67.019v-220.058h100.639c-16.086 18.297-25.862 42.277-25.862 68.553 0 57.39 46.516 103.907 103.901 103.907s103.901-46.516 103.901-103.907c0-26.276-9.775-50.258-25.862-68.553h381.911c-16.086 18.297-25.861 42.277-25.861 68.553 0 57.39 46.516 103.907 103.896 103.907 57.39 0 103.907-46.516 103.907-103.907 0-26.276-9.775-50.258-25.862-68.553h100.634v220.058c0.161 16.374-0.965 33.070-3.724 49.21-1.304 7.627-3.226 15.198-6.063 22.403-5.784 14.692-17.103 26.662-31.473 33.511-8.609 4.103-18.109 6.275-27.646 6.275-11.010 0-22.047-2.901-31.628-8.329-0.144-0.088-0.29-0.176-0.445-0.264-9.517-5.491-16.52-13.453-23.374-21.843-7.52-9.205-14.987-18.453-22.629-27.559-4.863-5.794-9.794-11.533-14.862-17.148-20.992-23.269-34.888-34.981-52.983-42.482-15.322-6.353-38.84-6.746-48.058-6.932-9.219-0.196-360.347-0.196-369.571 0-9.219 0.186-32.73 0.579-48.053 6.932-18.095 7.501-31.996 19.213-52.988 42.482-17.262 19.13-36.496 43.901-43.672 52.090-3.634 4.147-7.788 7.825-12.32 10.954zM204.943 398.995c0-26.39 3.606-50.468 9.538-68.802h57.036c5.935 18.333 9.543 42.412 9.543 68.802 0 57.412-17.040 103.959-38.069 103.959-21.019 0-38.049-46.547-38.049-103.959zM742.934 398.995c0-26.39 3.608-50.468 9.542-68.802h57.036c5.932 18.333 9.538 42.412 9.538 68.802 0 57.412-17.030 103.959-38.054 103.959s-38.063-46.547-38.063-103.959z" />
<glyph unicode="&#xe902;" glyph-name="cloud-music" d="M616.641 910.837c25.145 7.248 52.087 6.884 77.483 1.047 29.161-6.929 56.752-20.321 80.498-38.571 8.67-6.588 16.498-14.78 20.48-25.088 6.167-15.246 4.517-33.473-4.585-47.206-7.942-12.334-21.447-20.924-35.999-22.767-11.628-1.593-23.814 0.876-33.803 7.054-5.632 3.311-9.921 8.42-15.576 11.696-15.167 9.626-32.631 17.203-50.893 16.771-12.857-0.148-24.166-7.68-32.882-16.532-8.158-8.42-12.311-20.833-9.614-32.381 6.269-23.598 12.504-47.195 18.762-70.793 44.988-2.31 89.953-14.211 128.626-37.695 37.592-23.256 71.555-52.747 98.486-87.893 22.858-29.787 40.186-63.807 50.79-99.829 11.48-38.821 15.201-79.758 12.208-120.081-2.492-33.269-9.034-66.344-20.321-97.781-29.184-76.55-83.24-143.667-152.815-187.164-51.029-32.233-109.636-51.678-169.404-59.096-41.256-5.154-83.297-5.177-124.348 1.855-84.355 13.938-163.408 55.979-223.403 116.702-59.62 59.733-101.114 137.262-117.897 219.967-12.379 60.314-11.822 123.29 1.911 183.33 16.782 74.035 53.874 143.292 106.018 198.44 42.53 45.284 95.061 81.112 152.724 104.243 5.939 2.264 11.787 4.949 18.113 5.951 13.505 2.367 27.932-0.831 38.992-8.977 14.973-10.57 23.211-29.742 20.719-47.878-2.059-18.512-15.201-35.203-32.711-41.54-58.254-21.777-109.909-60.689-147.092-110.512-33.234-44.214-54.921-97.030-62.191-151.882-7.339-54.295-0.808-110.364 18.648-161.564 28.103-74.854 83.979-139.264 155.216-175.923 42.894-22.221 91.182-33.826 139.48-33.496 39.731 0.512 79.588 6.895 116.929 20.708 32.836 12.197 63.613 30.208 89.782 53.555 24.394 21.618 44.692 47.741 60.177 76.402 7.76 14.62 14.928 29.673 19.308 45.682 12.925 45.761 15.167 95.357 1.343 141.187-11.435 38.434-34.964 72.693-65.013 99.009-13.289 11.628-27.489 22.289-42.712 31.255-13.449 7.555-28.137 12.698-43.122 16.213 10.445-40.846 21.618-81.522 32.21-122.334 1.798-9.785 3.595-19.57 5.279-29.377 1.547-42.109-13.221-84.526-40.38-116.736-25.304-30.356-61.235-51.712-100.102-59.051-41.893-8.351-86.938-0.466-122.914 22.756-34.35 21.777-59.722 56.263-73.102 94.436-7.578 21.356-11.355 43.941-12.106 66.56-2.298 49.209 10.57 99.487 38.719 140.186 33.075 48.572 85.22 81.966 141.13 98.258-4.119 15.747-8.329 31.471-12.493 47.218-10.798 33.985-8.499 72.146 7.612 104.095 8.693 17.829 21.618 33.36 36.568 46.273 16.646 14.234 36.079 25.475 57.264 31.3zM483.146 540.661c-14.996-15.747-25.509-35.658-30.037-56.912-4.073-19.297-4.096-39.413-0.432-58.766 4.471-21.379 15.508-42.291 33.803-54.909 14.199-10.081 32.688-13.141 49.63-9.83 31.346 5.507 56.923 34.35 57.799 66.264-1.195 7.908-2.503 15.815-4.733 23.506-11.708 44.282-23.518 88.53-35.157 132.836-26.487-8.169-51.701-21.936-70.872-42.189z" />
<glyph unicode="&#xe903;" glyph-name="wechat" horiz-adv-x="1308" d="M1208.902 43.613c61.3 56.020 98.503 129.62 98.503 210.22 0 140.274-112.667 259.308-268.972 301.474-9.326 224.769-238.127 404.694-519.055 404.694-286.847 0-519.379-187.566-519.379-418.952 0-106.257 49.038-203.27 129.852-277.118 25.287-23.116-4.323-86.359-40.695-138.607 61.473 16.979 127.046 28.028 184.436 28.028 26.88 0 51.965-2.421 73.992-7.797 53.77-15.191 111.589-23.466 171.794-23.466 11.69 0 23.295 0.351 34.797 0.966 61.806-110.297 199.403-187.054 359.216-187.054 45.675 0 89.534 6.272 130.33 17.81 16.705 4.073 35.74 5.913 56.123 5.913 43.543 0 93.283-8.387 139.915-21.267-27.583 39.641-50.048 87.608-30.86 105.144v0.013zM519.379 198.625c-51.869 0-102.67 6.923-150.972 20.574l-1.334 0.377-1.352 0.333c-27.138 6.616-58.128 9.979-92.119 9.979-19.529 0-39.043-1.078-58.119-2.909 4.049 44.845-13.136 74.369-34 93.445-33.711 30.801-59.889 65.426-77.819 102.927-18.005 37.654-27.136 77.252-27.136 117.697 0 88.311 43.911 172.359 123.646 236.681 40.711 32.839 88.406 58.717 141.755 76.921 56.055 19.126 115.765 28.823 177.46 28.823 61.688 0 121.396-9.697 177.453-28.823 53.352-18.204 101.045-44.082 141.764-76.921 71.153-57.398 113.754-130.527 122.097-208.362v0c-15.507 1.499-31.288 2.285-47.309 2.285-217.605 0-394.005-142.286-394.005-317.82 0-18.811 2.038-37.245 5.922-55.157 0 0.009 0 0.009 0 0.009-1.976-0.018-3.952-0.059-5.931-0.059v0zM1157.272 100.096c-12.367-11.305-28.678-32.085-31.638-64.595-8.549 0.489-17.159 0.754-25.786 0.754-27.257 0-52.239-2.721-74.259-8.095l-1.343-0.333-1.334-0.368c-35.019-9.903-71.862-14.918-109.517-14.918-44.759 0-88.053 7.026-128.654 20.872-38.417 13.101-72.71 31.691-101.91 55.243-56.047 45.222-86.925 103.878-86.925 165.171 0 61.309 30.878 119.967 86.925 165.18 29.2 23.552 63.485 42.139 101.91 55.251 40.608 13.846 83.895 20.872 128.654 20.872 44.768 0 88.053-7.026 128.663-20.872 38.417-13.11 72.71-31.7 101.91-55.251 56.047-45.213 86.925-103.869 86.925-165.18 0-27.898-6.325-55.26-18.784-81.318-12.571-26.29-31.014-50.655-54.831-72.419v0.007zM291.461 622.949c0.421 44.168 28.054 79.761 62.089 79.761 34.291 0 62.089-36.14 62.089-80.718 0-44.58-27.798-80.72-62.089-80.72-34.035 0-61.668 35.602-62.080 79.71l-0.009 1.967zM614.434 622.949c0.412 44.168 28.045 79.761 62.080 79.761 34.291 0 62.089-36.14 62.089-80.718 0-44.58-27.798-80.72-62.089-80.72-34.035 0-61.668 35.602-62.080 79.71v1.967zM757.576 312.892c0.412 33.95 21.679 61.259 47.848 61.259 26.428 0 47.848-27.857 47.848-62.21 0-34.361-21.42-62.216-47.848-62.216-26.17 0-47.437 27.318-47.848 61.208v1.959zM988.114 312.892c0.412 33.95 21.679 61.259 47.848 61.259 26.428 0 47.857-27.857 47.857-62.21 0-34.361-21.429-62.216-47.857-62.216-26.17 0-47.437 27.318-47.848 61.208v1.959z" />
<glyph unicode="&#xe904;" glyph-name="douban" d="M51.2 908.8v-102.4h870.4v102.4h-870.4zM102.4 704v-409.6h716.8v409.6h-716.8zM716.8 396.8h-512v204.8h512v-204.8zM686.080 89.6c30.72 51.2 61.44 107.52 92.16 168.96l-92.16 30.72-20.48 5.12c0 0 0-5.12-5.12-5.12-25.6-76.8-56.32-143.36-97.28-204.8h-189.44c-30.72 76.8-61.44 148.48-102.4 204.8 0 0 0 5.12-5.12 5.12l-15.36-5.12-81.92-30.72c40.96-61.44 71.68-117.76 97.28-168.96h-266.24v-102.4h972.8v102.4h-286.72z" />
<glyph unicode="&#xe905;" glyph-name="facebook" d="M581.497 674.229c0 21.546 2.376 37.421 8.315 46.493 8.316 13.608 24.947 20.412 51.083 20.412h87.91v154.221h-147.309c-29.699 0-58.211-3.401-91.474-15.876-67.715-26.082-102.166-87.317-102.166-182.571v-92.987h-95.039v-155.355h95.039v-447.923h193.64v447.923h131.865l17.82 155.355h-149.685v70.307z" />
<glyph unicode="&#xe906;" glyph-name="google" horiz-adv-x="1317" d="M821.152 438.272q0-118.848-49.728-211.712t-141.728-145.152-210.848-52.288q-85.152 0-162.848 33.152t-133.728 89.152-89.152 133.728-33.152 162.848 33.152 162.848 89.152 133.728 133.728 89.152 162.848 33.152q163.424 0 280.576-109.728l-113.728-109.152q-66.848 64.576-166.848 64.576-70.272 0-130.016-35.424t-94.56-96.288-34.848-132.864 34.848-132.864 94.56-96.288 130.016-35.424q47.424 0 87.136 13.152t65.44 32.864 44.864 44.864 28 47.424 12.288 42.272h-237.728v144h395.424q6.848-36 6.848-69.728zM1316.576 508v-120h-119.424v-119.424h-120v119.424h-119.424v120h119.424v119.424h120v-119.424h119.424z" />
<glyph unicode="&#xe907;" glyph-name="heart" horiz-adv-x="1184" d="M984.917 931.722c-255.517 99.173-391.373-95.682-393.668-98.961-2.295 3.321-138.152 198.177-393.668 98.961-255.772-99.301-372.329-591.251 347.122-980.11 20.404-11.029 36.642-14.265 46.504-14.606v0h0.085c9.862 0.341 26.058 3.577 46.504 14.606 719.451 388.859 602.893 880.809 347.122 980.11v0z" />
<glyph unicode="&#xe908;" glyph-name="like" d="M102.435 609.505v0l0.031-1.703-0.026-1.703c-0.027-1.774-0.040-3.588-0.040-5.442 0-24.401 5.874-52.206 17.855-83.051 30.405-78.284 96.66-168.156 187.907-260.979 48.604-49.443 101.008-96.455 153.418-139.272 18.324-14.97 35.292-28.309 50.434-39.814 5.221-3.967 9.815-7.402 13.723-10.282 2.218-1.634 3.636-2.665 4.196-3.066l1.059-0.759 1.040-0.786c-14.004 10.588-28.223 10.6-42.495-0.349l1.434 1.1 1.472 1.049c0.563 0.401 2.070 1.493 4.456 3.252 4.242 3.128 9.237 6.88 14.923 11.234 16.532 12.659 35.073 27.464 55.11 44.23 57.394 48.022 114.812 101.77 168.126 159.621 30.811 33.433 59.342 67.3 85.141 101.384 46.856 61.905 78.191 118.681 91.823 167.026l0.319 1.131 0.345 1.123c5.885 19.176 8.915 39.265 8.915 59.879 0 112.316-90.88 203.313-202.921 203.313-51.658 0-100.046-19.282-137.295-53.6l-69.384-63.925-69.384 63.925c-37.249 34.318-85.637 53.6-137.295 53.6-112.041 0-202.921-90.997-202.921-203.313 0-1.276 0.012-2.55 0.035-3.822v0zM0.052 607.64c-0.034 1.891-0.052 3.787-0.052 5.687 0 168.841 136.697 305.713 305.321 305.713 79.719 0 152.302-30.591 206.679-80.69 54.377 50.098 126.96 80.69 206.679 80.69 168.624 0 305.321-136.873 305.321-305.713 0-31.295-4.696-61.493-13.422-89.923-18.74-66.46-58.911-135.214-108.731-201.035-151.062-199.581-349.984-341.317-349.984-341.317-22.527-17.281-59.089-17.097-81.589-0.085 0 0-470.274 337.102-470.274 619.69 0 2.366 0.017 4.694 0.052 6.984v0 0z" />
<glyph unicode="&#xe909;" glyph-name="linkedin" horiz-adv-x="1025" d="M199.424 602.843v-566.272h-188.562v566.272h188.562zM211.419 777.728q0.585-41.728-28.855-69.705t-77.422-28.014h-1.134q-46.848 0-75.447 28.014t-28.562 69.705q0 42.277 29.44 69.998t76.873 27.721 75.995-27.721 29.147-69.998zM877.714 361.143v-324.571h-188.014v302.848q0 60.014-23.15 93.989t-72.302 34.011q-35.986 0-60.27-19.712t-36.279-48.859q-6.29-17.152-6.29-46.299v-316.014h-188.014q1.134 227.986 1.134 369.701t-0.585 169.143l-0.585 27.429h188.014v-82.286h-1.134q11.447 18.286 23.442 32t32.293 29.696 49.701 24.869 65.426 8.85q97.719 0 157.147-64.841t59.429-189.989z" />
<glyph unicode="&#xe90a;" glyph-name="pixiv" horiz-adv-x="1157" d="M1012.973 837.319c-90.804 77.796-217.97 122.681-365.767 122.681-385.195 0-647.206-291.423-647.206-291.423l73.832-114.878c0 0 40.846-3.356 19.219 64.313 18.669 34.569 55.22 81.133 126.587 134.874 0 0 0-725.807 0-765.184-30.767-8.514-71.433-24.519-43.71-51.693 47.332 0 176.905 0 212.091 0 27.999 27.458-16.109 43.985-42.98 51.693 0 29.535 0 180.508 0 180.508s145.417-55.96 302.165-55.96c137.737 0 263.045 40.173 356.257 112.735 93.203 72.145 153.278 179.873 152.908 303 0.275 120.889-52.508 231.832-143.398 309.333zM900.57 285.383c-64.455-62.388-158.18-101.841-266.306-101.765-120.623-0.057-222.17 22.841-289.214 55.201 0 0 0 19.807 0 164.437 0 156.454 0 409.647 0 409.647 73.557 51.238 192.872 82.811 289.214 82.622 117.058-0.085 208.981-43.444 271.123-109.255 62.047-66.2 95.924-154.131 96.228-256.341-0.37-99.603-36.589-181.637-101.044-244.546z" />
<glyph unicode="&#xe90b;" glyph-name="qq" d="M156.395 499.694l-1.92 5.92-1.536 7.776-1.088 4.256v17.471l1.856 6.848 1.92 7.296 2.464 7.584 3.36 8.512 4.416 8.832 6.24 8.832v6.208l0.608 5.792 0.928 7.904 2.688 8.8 2.464 9.568 1.952 4.416 2.272 4.096 2.912 4.544 3.168 3.36v21.887l1.856 11.264 1.856 13.088 3.296 15.648 4.544 16.255 3.392 8.992 3.36 9.728 3.648 9.12 4.384 9.728 4.448 10.656 5.152 10.016 5.76 10.656 7.296 10.656 3.36 6.080 3.616 5.024 7.808 11.264 8 11.264 9.152 11.552 9.76 11.264 10.624 11.072 11.072 11.424 13.376 12.32 8.544 7.456 10.336 8.064 10.496 7.136 11.392 6.848 10.912 6.080 12.32 5.024 13.088 6.24 12.992 4.256 12.992 4.416 13.984 4.416 13.984 3.36 14.752 2.752 14.912 2.432 29.471 3.968 15.68 0.896h46.399l15.456-1.952 15.52-1.856 15.84-1.664 14.688-3.488 15.52-3.328 14.592-3.776 15.968-4.256 14.624-5.184 13.984-5.92 14.912-6.24 13.664-6.848 13.216-7.584 12.96-8.384 11.232-7.744 5.152-4.416 5.472-3.2 10.368-8.832 8.768-8.512 8.704-8.832 8.544-9.728 7.008-9.408 8.32-9.728 5.856-10.464 5.888-9.28 6.272-10.816 5.152-9.408 8.768-19.935 4.32-10.336 3.36-9.568 3.36-10.336 3.008-9.728 2.176-8.352 2.688-9.888 4.768-17.631 3.040-15.36 1.952-14.912 1.696-12 2.688-18.239 0.608-2.912 2.144-3.36 5.76-9.408 3.712-6.368 3.296-6.72 4.224-7.136 3.712-8.544 2.4-8.8 2.624-9.568 1.984-9.856 0.928-4.864 0.768-5.952v-5.184l-0.768-5.184v-6.4l-1.536-6.208-2.784-12.032-3.168-6.080-2.304-6.848v-1.664l1.088-2.144 3.168-5.024 13.696-20.223 10.848-15.2 5.152-10.208 7.008-11.104 6.080-12.16 7.008-13.088 7.008-14.624 7.872-16.575 4.416-10.176 4.064-9.856 3.552-10.528 3.456-9.376 2.624-9.92 2.688-9.28 3.392-18.111 2.688-18.527 1.856-16.383v-23.167l-1.216-8.224-1.76-14.112-2.464-12.768-3.776-11.552-1.376-4.736-2.624-5.6-2.24-3.968-2.944-4.896-2.624-3.040-3.296-3.968-2.912-3.168-3.168-2.752-3.776-1.664-3.392-1.664-2.784-0.928h-4.224l-2.72 0.928-5.184 2.528-2.4 1.696-2.464 1.856-2.72 2.432-2.72 2.72-4.544 4.992-5.376 7.168-4.224 7.296-4.224 5.92-4.128 6.848-5.792 12.16-6.528 12.672-0.768 0.416h-1.088l-2.688-1.952-1.536-3.36-2.528-4.064-4.48-12.352-6.688-17.503-8.608-20.959-6.464-10.496-6.816-10.912-8.032-12.32-8.544-12.064-4.384-5.472-5.312-5.92-12.192-12 1.088-1.088 1.664-1.696 6.080-3.616 25.375-12.16 11.072-6.24 10.528-6.080 10.464-7.616 9.312-7.936 4.544-3.488 3.392-4.128 3.456-4.704 2.912-5.184 1.536-4.256 1.92-5.152 0.768-4.384 0.928-5.184-0.928-3.488v-3.456l-0.768-3.712-1.92-3.296-0.768-2.624-1.696-3.168-4.608-6.272-4.224-5.024-3.296-3.776-2.752-2.752-7.008-5.152-7.936-4.416-8.448-4.256-8.992-4.064-10.144-3.936-5.376-1.696-4.832-1.376-11.68-2.72-12.16-2.592-12.16-2.624-13.216-2.112-13.696-0.576-13.984-1.696h-43.455l-15.712 0.928-14.624 1.344-15.712 2.112-15.616 1.696-16.479 2.304-15.936 3.936-15.552 3.072-15.456 4.384-15.84 5.6-15.52 4.736-8.16 2.72-7.296 2.624-4.608 1.76-4.544 0.928h-12.928l-14.912 1.088-7.584 0.768-9.728 1.088-6.24-5.6-8.544-5.344-11.552-5.664-12.768-7.008-7.776-3.776-8.064-3.040-17.919-7.296-9.728-2.432-10.176-2.784-14.144-2.688-8.832-0.768-9.376-0.768-9.76-1.088-11.392-0.448h-46.495l-26.271 0.448-25.471 2.624-12.928 1.76-12.448 1.856-12.16 1.856-12.16 2.432-11.264 3.648-11.264 2.592-10.144 4.128-9.6 3.776-8.928 4.32-7.776 4.704-7.776 5.6-2.624 2.784-3.456 3.296-2.624 2.912-2.4 3.296-2.176 3.392-1.696 3.296-2.432 7.168-0.896 3.648-1.088 4.128v3.776l1.088 4.256v4.256l0.896 4.256v8.512l0.416 4.576 2.016 5.184 1.696 5.152 3.072 6.24 2.24 2.432 1.856 2.72 4.832 5.92 3.84 3.072 3.616 2.112 3.36 2.72 5.344 1.696 4.224 2.528 5.312 2.784 6.080 1.792 6.080 1.856 7.008 1.504 14.624 2.016 8.544 0.608 2.272 0.768h0.448l1.088 0.928v0.992l-1.536 2.144-4.576 2.144-11.392 9.856-7.616 6.080-8.832 7.776-8.928 8.64-9.312 11.136-10.624 12.448-4 6.688-5.312 7.008-4.544 8.064-4.064 8.8-5.536 8.352-3.616 9.6-4.256 9.536-4.256 10.688-3.168 10.144-2.912 12.608-0.928 0.448h-0.896l-0.448 0.928h-1.088l-1.792-0.928-0.928-0.448-1.216-2.112-0.448-2.592-0.928-2.304-1.632-3.776-5.248-9.312-2.688-5.6-4.256-4.832-4.576-5.92-4.992-6.528-5.312-5.792-6.24-5.6-5.792-5.312-6.336-4.128-7.008-4.416-6.688-2.592-7.936-1.984-7.776-0.736h-1.856l-1.76 0.736-1.376 3.072-2.304 1.504-3.008 7.296-1.856 3.968-2.016 5.6-1.664 5.92-0.896 5.76-2.464 13.216-0.928 7.776v25.535l0.928 19.007 1.536 9.76 1.792 9.984 1.664 10.816 2.912 10.048 3.296 11.584 3.392 11.232 4.544 11.584 4.256 11.072 5.888 11.264 5.536 12.16 6.688 11.424 7.872 12.32 8.032 11.072 8.384 12.32 7.008 8.544 8.96 9.888 9.408 9.888 4.384 4.704 5.344 5.312 7.744 6.72 7.936 6.816 12.928 11.552 9.76 7.136z" />
<glyph unicode="&#xe90c;" glyph-name="qzone" d="M745.114 296.624c-94.17 7.458-188.368 14.914-282.537 22.372 5.092 2.487 10.183 4.97 15.275 7.458 86.53 62.134 173.093 124.293 259.628 186.429h-15.275c-93.491 40.372-381.374 31.369-465.8-7.458 111.983-7.458 224.005-14.915 335.989-22.372-2.548-4.97-5.092-9.944-7.636-14.915-91.626-59.647-183.275-119.319-274.902-178.971v-7.458c167.078-22.488 349.376-2.304 503.984 14.915v-7.453h-15.275c-28.301-22.273-32.77-10.122-38.181-59.662 12.728-62.134 25.454-124.289 38.181-186.424-2.543-2.487-5.087-4.969-7.635-7.458h-30.546c-61.132 51.638-171.355 125.906-267.263 134.229-78.899-44.743-157.817-89.49-236.717-134.229-10.178 4.97-20.366 9.944-30.545 14.915 17.813 96.934 35.636 193.895 53.455 290.828-71.266 64.624-142.55 129.26-213.814 193.883 1.719 5.031 3.433 10.057 5.148 15.088 0.276 0.805 0.553 1.615 0.829 2.426 0.553 1.621 1.105 3.237 1.659 4.858 94.17 12.427 188.368 24.859 282.537 37.286 50.903 89.481 101.82 178.976 152.722 268.457h15.27c43.267-91.965 86.549-183.952 129.817-275.914 99.257-9.939 198.546-19.884 297.804-29.828 2.548-4.969 5.092-9.944 7.635-14.914-71.26-69.593-142.548-139.203-213.808-208.799-0.001-12.43-0.001-24.861-0.001-37.288v0z" />
<glyph unicode="&#xe90d;" glyph-name="tencent2" d="M517.12 954.88q92.16 0 172.544-34.816t140.288-94.72 94.72-140.288 34.816-171.52q0-92.16-34.816-172.544t-94.72-140.288-140.288-94.72-172.544-34.816h-13.312q-6.144 0-12.288 1.024h-4.096q-15.36 2.048-26.112 13.824t-10.752 28.16q0 17.408 12.288 29.696t29.696 12.288q4.096 0 12.288-2.048l1.024 1.024h11.264q73.728 0 139.264 28.16t114.176 76.8 76.8 114.176 28.16 139.264-28.16 139.264-76.8 113.664-114.176 76.288-139.264 28.16-139.264-28.16-113.664-76.288-76.288-113.664-28.16-139.264q0-75.776 29.696-143.36 6.144-9.216 6.144-22.528 0-17.408-12.288-29.696t-29.696-12.288q-11.264 0-19.968 4.608t-14.848 12.8q-20.48 43.008-31.744 90.624t-11.264 99.84q0 91.136 34.816 171.52t94.72 140.288 140.288 94.72 171.52 34.816zM721.92 513.536q0-41.984-15.872-79.36t-43.52-65.024-65.024-44.032-80.384-16.384q-34.816 0-66.048 10.752t-56.832 31.232q-11.264-13.312-28.672-33.28t-36.864-44.544-39.936-51.712-37.888-53.76q-25.6-38.912-47.616-79.36t-38.4-74.24q-19.456-39.936-35.84-77.824l-105.472 4.096q15.36 44.032 37.888 92.16 19.456 40.96 47.616 91.136t67.072 100.352q21.504 27.648 45.056 55.296t46.080 52.224 41.984 44.544 32.768 33.28q-28.672 48.128-28.672 104.448 0 41.984 15.872 79.36t43.52 65.024 65.024 43.52 79.36 15.872q43.008 0 80.384-15.872t65.024-43.52 43.52-65.024 15.872-79.36z" />
<glyph unicode="&#xe90e;" glyph-name="twitter" d="M962.267 726.821q-38.254-56.027-92.599-95.451 0.585-7.973 0.585-23.991 0-74.313-21.723-148.261t-65.975-141.97-105.399-120.32-147.456-83.456-184.539-31.159q-154.843 0-283.429 82.871 19.968-2.267 44.544-2.267 128.585 0 229.157 78.848-59.977 1.17-107.447 36.864t-65.17 91.136q18.871-2.853 34.889-2.853 24.576 0 48.567 6.29-64 13.166-105.984 63.707t-41.984 117.394v2.267q38.839-21.723 83.456-23.406-37.742 25.161-59.977 65.682t-22.309 87.991q0 50.322 25.161 93.111 69.12-85.138 168.302-136.265t212.261-56.832q-4.535 21.723-4.535 42.277 0 76.581 53.979 130.56t130.56 53.979q80.018 0 134.875-58.295 62.318 11.995 117.175 44.544-21.138-65.682-81.115-101.742 53.175 5.705 106.277 28.599z" />
<glyph unicode="&#xe90f;" glyph-name="tencent" d="M512.681 316.584c-28.65 0-56.438 3.55-82.94 10.159l0.213 0.581c-11.66 3.092-20.289 13.314-20.289 25.494 0 14.689 12.362 26.564 27.633 26.564 4.010 0 7.835-0.857 11.294-2.327v0c20.566-4.743 41.986-7.313 64.088-7.313 151.241 0 273.869 117.854 273.869 263.219 0 145.398-122.628 263.251-273.869 263.251-151.246 0-273.875-117.853-273.875-263.251 0-47.741 13.281-92.484 36.418-131.075l-0.275-0.121c2.51-4.009 4.070-8.661 4.070-13.68 0-14.69-12.394-26.564-27.636-26.564-11.507 0-21.36 6.732-25.523 16.371-26.9 45.815-42.325 98.697-42.325 155.068 0 174.747 147.356 316.378 329.145 316.378 181.784 0 329.139-141.631 329.139-316.378 0.001-174.714-147.354-316.376-329.137-316.376zM510.168 731.994c-61.056 0-110.542-47.588-110.542-106.255 0-16.801 4.163-32.623 11.352-46.762-30.725-27.88-243.603-236.381-192.28-619.782 0 0 2.111-14.991 28.513-13.232 7.473 0.499 22.514 5.984 21.737 18.036-7.789 111.82-22.83 375.529 179.519 573.541 17.627-11.416 38.837-18.056 61.699-18.056 61.056 0 110.543 47.558 110.543 106.255 0.001 58.667-49.487 106.255-110.543 106.255z" />
<glyph unicode="&#xe910;" d="M408.7 473.2c5 15.5-3.4 32.2-19 37.2-15.5 5-32.2-3.5-37.2-19s3.5-32.2 19-37.2 32.1 3.5 37.2 19zM448 352.1c-13.2 9.6-31.7 6.7-41.2-6.5-9.6-13.2-6.7-31.7 6.5-41.2 13.2-9.6 31.7-6.7 41.2 6.5 9.6 13.2 6.7 31.6-6.5 41.2zM511.7 548c16.3 0 29.5 13.2 29.5 29.5s-13.2 29.5-29.5 29.5-29.5-13.2-29.5-29.5c-0.1-16.3 13.1-29.5 29.5-29.5zM575.3 352.1c-13.2-9.6-16.1-28.1-6.5-41.2 9.6-13.2 28.1-16.1 41.3-6.5s16.1 28.1 6.5 41.2c-9.6 13.2-28.1 16.1-41.3 6.5zM539.7 448.9c-3.8 11.8-15 20.4-28.1 20.4s-24.3-8.6-28.1-20.4c-0.9-2.9-1.4-5.9-1.4-9.1 0-16.3 13.2-29.5 29.5-29.5s29.5 13.2 29.5 29.5c0.1 3.1-0.4 6.2-1.4 9.1zM614.6 473.2c5-15.5 21.7-24 37.2-19s24 21.7 19 37.2c-5 15.5-21.7 24-37.2 19s-24-21.7-19-37.2zM959.1 477.5c8.3-78.6-70.3-120.9-161.1-130.8 67.7-61.3 106.3-141.8 53.4-200.5-24.8-27.6-57.7-43.6-91.8-47.7-14.5-31.2-39.9-57.5-73.8-72.6-72.2-32.2-136.7 29.5-174.2 112.8-37.4-83.3-102-144.9-174.2-112.8-33.9 15.1-59.3 41.4-73.8 72.6-34.2 4.2-67 20.2-91.8 47.7-52.9 58.7-14.2 139.2 53.4 200.5-90.7 9.9-169.2 52.2-161 130.8 3.9 36.9 21 69.2 46.2 92.6-6.6 33.8-1.5 70 17 102.1 39.5 68.4 128 56.5 207.2 11.1-18.6 89.4-2.6 177.2 74.7 193.6 36.3 7.7 72.3 1.3 102.4-15.4 30.1 16.7 66.1 23.1 102.3 15.4 77.3-16.4 93.3-104.2 74.6-193.6 79.2 45.4 167.7 57.3 207.2-11.1 18.6-32.1 23.6-68.3 17-102.1 25.2-23.4 42.4-55.7 46.3-92.6z" />
<glyph unicode="&#xe911;" d="M633.2 463.7l-9.1 28.1-97.7-31.8v102.8h-29.5v-102.7l-97.7 31.8-9.1-28.1 97.7-31.7-60.4-83.1 23.9-17.4 60.4 83.1 60.4-83.1 23.9 17.4-60.5 83 97.7 31.7z" />
<glyph unicode="&#xe912;" d="M541.2 439.7c0-16.3-13.2-29.5-29.5-29.5s-29.5 13.2-29.5 29.5 13.2 29.5 29.5 29.5c16.3 0.1 29.5-13.2 29.5-29.5z" />
<glyph unicode="&#xe913;" d="M482.2 577.6c0-16.292 13.208-29.5 29.5-29.5s29.5 13.208 29.5 29.5v0c0 16.292-13.208 29.5-29.5 29.5s-29.5-13.208-29.5-29.5v0z" />
<glyph unicode="&#xe914;" d="M351.1 482.3c0-16.292 13.208-29.5 29.5-29.5s29.5 13.208 29.5 29.5v0c0 16.292-13.208 29.5-29.5 29.5s-29.5-13.208-29.5-29.5v0z" />
<glyph unicode="&#xe915;" d="M430.6 357.8c-16.3 0-29.5-13.2-29.5-29.5s13.2-29.5 29.5-29.5 29.5 13.2 29.5 29.5c0.1 16.2-13.1 29.5-29.5 29.5zM592.7 357.8c-16.3 0-29.5-13.2-29.5-29.5s13.2-29.5 29.5-29.5 29.5 13.2 29.5 29.5c0 16.2-13.2 29.5-29.5 29.5z" />
<glyph unicode="&#xe916;" d="M613.2 482.3c0-16.292 13.208-29.5 29.5-29.5s29.5 13.208 29.5 29.5v0c0 16.292-13.208 29.5-29.5 29.5s-29.5-13.208-29.5-29.5v0z" />
<glyph unicode="&#xe917;" d="M890.1 272.7l-93.2 53.4 88.2 23.9c19.2 5.2 30.5 24.9 25.3 44.1s-24.9 30.5-44.1 25.3l-157.6-42.7-124.6 71.5 124.4 71.8 157.7-42.2c3.1-0.8 6.2-1.2 9.3-1.2 15.9 0 30.4 10.6 34.7 26.6 5.1 19.2-6.2 38.9-25.4 44l-88.3 23.6 87.8 50.7c17.2 9.9 23.1 31.9 13.1 49.1-9.9 17.2-31.9 23.1-49.1 13.1l-87.8-50.7 23.6 88.3c5.1 19.2-6.2 38.9-25.4 44s-38.9-6.2-44-25.4l-42.2-157.7-124.6-72v147l115.5 115.5c14 14 14 36.8 0 50.8s-36.8 14-50.8 0l-64.6-64.6v101.3c0 19.8-16.1 35.9-35.9 35.9s-35.9-16.1-35.9-35.9v-101.4l-64.6 64.6c-14 14-36.8 14-50.8 0s-14-36.8 0-50.8l115.5-115.5v-147.1l-125 71.7-42.7 157.6c-5.2 19.2-24.9 30.5-44.1 25.3s-30.5-24.9-25.3-44.1l23.9-88.2-88 50.4c-17.2 9.9-39.2 3.9-49.1-13.3s-3.9-39.2 13.3-49.1l88-50.4-88.4-23.9c-19.2-5.2-30.5-24.9-25.3-44.1 4.3-16 18.8-26.5 34.7-26.5 3.1 0 6.3 0.4 9.4 1.3l157.6 42.7 124.6-71.5-124.4-71.9-157.7 42.2c-19.2 5.1-38.9-6.2-44-25.4s6.2-38.9 25.4-44l88.3-23.6-93-53.7c-17.2-9.9-23.1-31.9-13.1-49.1 6.7-11.5 18.7-18 31.2-18 6.1 0 12.3 1.6 17.9 4.8l93 53.7-23.6-88.3c-5.1-19.2 6.2-38.9 25.4-44 3.1-0.8 6.2-1.2 9.3-1.2 15.9 0 30.4 10.6 34.7 26.7l42.2 157.7 124.6 72v-140.8l-115.5-115.6c-14-14-14-36.8 0-50.8 7-7 16.2-10.5 25.4-10.5s18.4 3.5 25.4 10.5l64.6 64.6v-107.5c0-19.8 16.1-35.9 35.9-35.9s35.9 16.1 35.9 35.9v107.6l64.6-64.6c14-14 36.8-14 50.8 0s14 36.8 0 50.8l-115.3 115.4v141.1l125-71.7 42.7-157.6c4.3-16 18.8-26.5 34.7-26.5 3.1 0 6.3 0.4 9.4 1.3 19.2 5.2 30.5 24.9 25.3 44.1l-23.9 88.2 93.2-53.4c5.6-3.2 11.8-4.8 17.8-4.8 12.5 0 24.6 6.5 31.2 18.1 10 17.1 4 39.1-13.2 49z" />
<glyph unicode="&#xe918;" d="M365.4 448c0-80.965 65.635-146.6 146.6-146.6s146.6 65.635 146.6 146.6v0c0 80.965-65.635 146.6-146.6 146.6s-146.6-65.635-146.6-146.6v0z" />
<glyph unicode="&#xe919;" glyph-name="cat-in-black-silhouette" d="M605.782 559.391c16.464 0 29.798-13.339 29.798-29.795 0-16.451-13.334-29.785-29.798-29.785-16.449 0-29.795 13.332-29.795 29.785 0 16.459 13.344 29.795 29.795 29.795zM917.874 119.776c-20.728 38.995-44.21 83.206-44.21 152.583 0 116.069 64.38 156.902 67.002 158.505 9.524 5.635 12.654 17.926 7.018 27.45-5.648 9.542-17.95 12.669-27.462 7.033-3.535-2.103-86.637-52.916-86.637-192.988 0-79.369 27.109-130.392 48.883-171.394 15.615-29.352 27.93-52.56 27.93-79.084 0-19.007-4.136-32.729-11.949-39.735-7.958-7.122-18.356-6.066-18.551-6.066-0.952 0.143-1.93 0.208-2.897 0.208h-73.758c8.584 13.438 13.646 29.328 13.646 46.432v903.382c0 8.995-6.002 16.889-14.677 19.308-8.649 2.439-17.874-1.244-22.529-8.943l-97.871-162.001c-30.030 0.571-118.273 1.259-382.429 1.259-56.090 0-83.851-0.040-97.876-0.139l-90.16 173.601c-4.265 8.206-13.626 12.439-22.534 10.234-8.983-2.192-15.298-10.234-15.298-19.464v-917.213c0-47.696 38.793-86.508 86.501-86.508h715.891c1.316-0.116 3.181-0.235 5.504-0.235 9.799 0 27.423 2.179 42.946 15.578 17.324 14.977 26.119 38.627 26.119 70.329 0.002 36.489-15.823 66.312-32.601 97.868zM284.595 459.736c-38.523 0-69.867 31.336-69.867 69.859 0 38.53 31.356 69.872 69.867 69.872 38.518 0 69.867-31.341 69.867-69.872 0-38.523-31.336-69.859-69.867-69.859zM480.26 379.229h-14.799l-1.618-27.838c-0.614-10.647-9.445-18.878-19.986-18.878-0.386 0-0.782 0.012-1.175 0.027-11.043 0.653-19.489 10.135-18.831 21.161l1.482 25.515h-15.204c-11.058 0-20.041 8.963-20.041 20.038 0 11.078 8.983 20.041 20.041 20.041h70.134c11.063 0 20.038-8.963 20.038-20.041-0.002-11.075-8.978-20.026-20.041-20.026zM605.782 459.736c-38.523 0-69.872 31.336-69.872 69.859 0 38.53 31.361 69.872 69.872 69.872 38.538 0 69.899-31.341 69.899-69.872-0.002-38.523-31.361-69.859-69.899-69.859zM314.386 529.603c0-16.453-13.338-29.79-29.79-29.79s-29.79 13.338-29.79 29.79c0 16.453 13.338 29.79 29.79 29.79s29.79-13.338 29.79-29.79z" />
<glyph unicode="&#xe91a;" glyph-name="cat-in-white-silhouette" d="M284.595 599.482c-38.523 0-69.867-31.341-69.867-69.867 0-38.53 31.356-69.867 69.867-69.867 38.518 0 69.867 31.336 69.867 69.867 0 38.525-31.336 69.867-69.867 69.867zM284.595 499.813c-16.419 0-29.79 13.359-29.79 29.785 0 16.439 13.371 29.795 29.79 29.795s29.79-13.356 29.79-29.795c0-16.426-13.359-29.785-29.79-29.785zM605.782 599.482c-38.523 0-69.872-31.341-69.872-69.867 0-38.53 31.361-69.867 69.872-69.867 38.538 0 69.899 31.336 69.899 69.867-0.002 38.525-31.361 69.867-69.899 69.867zM605.782 499.813c-16.412 0-29.795 13.359-29.795 29.785 0 16.439 13.384 29.795 29.795 29.795 16.439 0 29.825-13.356 29.825-29.795-0.002-16.426-13.361-29.785-29.825-29.785zM873.664 272.358c0 116.069 64.38 156.902 67.002 158.505 9.524 5.635 12.654 17.926 7.018 27.45-5.648 9.542-17.95 12.669-27.462 7.033-3.535-2.103-86.637-52.916-86.637-192.988 0-79.369 27.109-130.392 48.883-171.394 15.615-29.352 27.93-52.56 27.93-79.084 0-19.007-4.136-32.729-11.949-39.735-7.958-7.122-18.356-6.066-18.551-6.066-0.952 0.143-1.93 0.208-2.897 0.208h-73.758c8.584 13.438 13.646 29.328 13.646 46.432v903.382c0 8.995-6.002 16.889-14.677 19.308-8.649 2.439-17.874-1.244-22.529-8.943l-97.871-162.001c-30.030 0.571-118.273 1.259-382.429 1.259-56.090 0-83.851-0.040-97.876-0.139l-90.16 173.601c-4.265 8.206-13.626 12.439-22.534 10.234-8.983-2.192-15.298-10.234-15.298-19.464v-917.213c0-47.696 38.793-86.508 86.501-86.508h715.891c1.316-0.116 3.181-0.235 5.504-0.235 9.799 0 27.423 2.179 42.946 15.578 17.324 14.977 26.119 38.627 26.119 70.329 0 36.517-15.838 66.337-32.603 97.896-20.726 38.968-44.208 83.179-44.208 152.556zM466.224-23.701h-306.209c-25.597 0-46.424 20.835-46.424 46.429v835.15l58.014-111.69c3.671-7.11 11.461-11.226 19.054-10.769 4.020 0.104 34.505 0.228 108.724 0.228 154.032 0 375.985-0.482 391.538-1.247 7.59-0.809 15.237 2.82 19.308 9.557l66.584 110.223v-831.464c0-25.597-20.82-46.432-46.417-46.432l-264.171 0.015zM480.26 419.308h-70.134c-11.058 0-20.041-8.963-20.041-20.038 0-11.078 8.983-20.041 20.041-20.041h15.204l-1.482-25.505c-0.658-11.051 7.788-20.521 18.831-21.174 0.391-0.012 0.789-0.027 1.175-0.027 10.541 0 19.373 8.233 19.986 18.878l1.618 27.841h14.799c11.063 0 20.038 8.96 20.038 20.038s-8.973 20.028-20.036 20.028z" />
</font>
</defs>
</svg>
